<?xml version="1.0" encoding="UTF-8" standalone="no"?>
<!DOCTYPE svg PUBLIC "-//W3C//DTD SVG 1.1//EN"
 "http://www.w3.org/Graphics/SVG/1.1/DTD/svg11.dtd">
<!-- Generated by graphviz version 2.38.0 (20140413.2041)
 -->
<!-- Title: %3 Pages: 1 -->
<svg width="349pt" height="504pt"
 viewBox="0.00 0.00 349.00 504.00" xmlns="http://www.w3.org/2000/svg" xmlns:xlink="http://www.w3.org/1999/xlink">
<g id="graph0" class="graph" transform="scale(1 1) rotate(0) translate(4 500)">
<title>%3</title>
<polygon fill="white" stroke="none" points="-4,4 -4,-500 345,-500 345,4 -4,4"/>
<text text-anchor="middle" x="170.5" y="-7.8" font-family="Times New Roman,serif" font-size="14.00">fixed&#45;buffer channel</text>
<g id="clust1" class="cluster"><title>cluster_open</title>
<path fill="none" stroke="black" d="M20,-174C20,-174 321,-174 321,-174 327,-174 333,-180 333,-186 333,-186 333,-476 333,-476 333,-482 327,-488 321,-488 321,-488 20,-488 20,-488 14,-488 8,-482 8,-476 8,-476 8,-186 8,-186 8,-180 14,-174 20,-174"/>
<text text-anchor="middle" x="170.5" y="-472.8" font-family="Times New Roman,serif" font-size="14.00">fixed&#45;buffer channel</text>
</g>
<!-- empty -->
<g id="node1" class="node"><title>empty</title>
<ellipse fill="red" stroke="red" cx="267" cy="-399" rx="54" ry="54"/>
<ellipse fill="none" stroke="red" cx="267" cy="-399" rx="58" ry="58"/>
<text text-anchor="middle" x="267" y="-410.3" font-family="Times New Roman,serif" font-size="14.00">empty &#45;</text>
<text text-anchor="middle" x="267" y="-395.3" font-family="Times New Roman,serif" font-size="14.00">blocking</text>
<text text-anchor="middle" x="267" y="-380.3" font-family="Times New Roman,serif" font-size="14.00">read</text>
</g>
<!-- full -->
<g id="node2" class="node"><title>full</title>
<ellipse fill="darkgreen" stroke="darkgreen" cx="70" cy="-399" rx="54" ry="54"/>
<text text-anchor="middle" x="70" y="-410.3" font-family="Times New Roman,serif" font-size="14.00">full &#45; </text>
<text text-anchor="middle" x="70" y="-395.3" font-family="Times New Roman,serif" font-size="14.00">blocking</text>
<text text-anchor="middle" x="70" y="-380.3" font-family="Times New Roman,serif" font-size="14.00">write</text>
</g>
<!-- empty&#45;&gt;full -->
<g id="edge1" class="edge"><title>empty&#45;&gt;full</title>
<path fill="none" stroke="black" d="M208.889,-399C185.417,-399 158.243,-399 134.19,-399"/>
<polygon fill="black" stroke="black" points="134.092,-395.5 124.092,-399 134.092,-402.5 134.092,-395.5"/>
<text text-anchor="middle" x="166.5" y="-405.8" font-family="Times New Roman,serif" font-size="14.00">+, count = size</text>
</g>
<!-- readable_writable -->
<g id="node3" class="node"><title>readable_writable</title>
<ellipse fill="yellow" stroke="yellow" cx="163" cy="-236" rx="54" ry="54"/>
<text text-anchor="middle" x="163" y="-247.3" font-family="Times New Roman,serif" font-size="14.00">readable</text>
<text text-anchor="middle" x="163" y="-232.3" font-family="Times New Roman,serif" font-size="14.00">&amp;</text>
<text text-anchor="middle" x="163" y="-217.3" font-family="Times New Roman,serif" font-size="14.00">writable</text>
</g>
<!-- empty&#45;&gt;readable_writable -->
<g id="edge2" class="edge"><title>empty&#45;&gt;readable_writable</title>
<path fill="none" stroke="black" d="M235.797,-349.695C223.707,-330.98 209.823,-309.485 197.442,-290.319"/>
<polygon fill="black" stroke="black" points="200.238,-288.196 191.872,-281.695 194.358,-291.994 200.238,-288.196"/>
<text text-anchor="middle" x="222.5" y="-311.8" font-family="Times New Roman,serif" font-size="14.00">+</text>
</g>
<!-- full&#45;&gt;empty -->
<g id="edge3" class="edge"><title>full&#45;&gt;empty</title>
<path fill="none" stroke="black" d="M121.667,-383.005C125.477,-382.206 129.282,-381.521 133,-381 162.49,-376.87 170.478,-377.103 200,-381 200.463,-381.061 200.927,-381.124 201.392,-381.19"/>
<polygon fill="black" stroke="black" points="200.845,-384.647 211.288,-382.86 202.01,-377.745 200.845,-384.647"/>
<text text-anchor="middle" x="166.5" y="-384.8" font-family="Times New Roman,serif" font-size="14.00">&#45;, count = 0</text>
</g>
<!-- full&#45;&gt;readable_writable -->
<g id="edge4" class="edge"><title>full&#45;&gt;readable_writable</title>
<path fill="none" stroke="black" d="M72.2083,-344.646C74.3471,-332.083 77.974,-319.123 84,-308 90.7857,-295.475 100.67,-284.044 111.164,-274.187"/>
<polygon fill="black" stroke="black" points="113.753,-276.567 118.878,-267.295 109.089,-271.347 113.753,-276.567"/>
<text text-anchor="middle" x="86.5" y="-311.8" font-family="Times New Roman,serif" font-size="14.00">&#45;</text>
</g>
<!-- readable_writable&#45;&gt;empty -->
<g id="edge5" class="edge"><title>readable_writable&#45;&gt;empty</title>
<path fill="none" stroke="black" d="M202.62,-273.02C212.771,-283.598 223.052,-295.659 231,-308 236.207,-316.086 240.884,-325.046 245.007,-334.088"/>
<polygon fill="black" stroke="black" points="241.905,-335.732 249.102,-343.507 248.324,-332.941 241.905,-335.732"/>
<text text-anchor="middle" x="271.5" y="-311.8" font-family="Times New Roman,serif" font-size="14.00">&#45;, count = 0</text>
</g>
<!-- readable_writable&#45;&gt;full -->
<g id="edge6" class="edge"><title>readable_writable&#45;&gt;full</title>
<path fill="none" stroke="black" d="M133.919,-281.759C128.511,-290.396 122.995,-299.425 118,-308 111.741,-318.746 105.304,-330.369 99.2569,-341.579"/>
<polygon fill="black" stroke="black" points="96.1385,-339.989 94.5023,-350.456 102.309,-343.294 96.1385,-339.989"/>
<text text-anchor="middle" x="158.5" y="-311.8" font-family="Times New Roman,serif" font-size="14.00">+ count = size</text>
</g>
<!-- readable_writable&#45;&gt;readable_writable -->
<g id="edge7" class="edge"><title>readable_writable&#45;&gt;readable_writable</title>
<path fill="none" stroke="black" d="M216.694,-243.011C227.38,-242.222 235,-239.885 235,-236 235,-233.511 231.873,-231.658 226.815,-230.44"/>
<polygon fill="black" stroke="black" points="227.089,-226.943 216.694,-228.989 226.096,-233.872 227.089,-226.943"/>
<text text-anchor="middle" x="239.5" y="-232.3" font-family="Times New Roman,serif" font-size="14.00">+</text>
</g>
<!-- readable_writable&#45;&gt;readable_writable -->
<g id="edge8" class="edge"><title>readable_writable&#45;&gt;readable_writable</title>
<path fill="none" stroke="black" d="M215.243,-250.553C235.816,-251.286 253,-246.436 253,-236 253,-227.358 241.216,-222.546 225.481,-221.564"/>
<polygon fill="black" stroke="black" points="225.282,-218.062 215.243,-221.447 225.203,-225.061 225.282,-218.062"/>
<text text-anchor="middle" x="255.5" y="-232.3" font-family="Times New Roman,serif" font-size="14.00">&#45;</text>
</g>
<!-- closed -->
<g id="node4" class="node"><title>closed</title>
<ellipse fill="lightgrey" stroke="black" cx="163" cy="-77" rx="54" ry="54"/>
<text text-anchor="middle" x="163" y="-73.3" font-family="Times New Roman,serif" font-size="14.00">closed</text>
</g>
<!-- readable_writable&#45;&gt;closed -->
<g id="edge9" class="edge"><title>readable_writable&#45;&gt;closed</title>
<path fill="none" stroke="black" d="M163,-174.411C163,-163.542 163,-152.189 163,-141.247"/>
<polygon fill="black" stroke="black" points="166.5,-141.098 163,-131.098 159.5,-141.098 166.5,-141.098"/>
<text text-anchor="middle" x="178" y="-152.8" font-family="Times New Roman,serif" font-size="14.00">close</text>
</g>
</g>
</svg>
